<?xml version="1.0" encoding="utf-8"?>
<!-- Generator: Adobe Illustrator 25.2.3, SVG Export Plug-In . SVG Version: 6.00 Build 0)  -->
<svg version="1.1" id="Lager_1" xmlns="http://www.w3.org/2000/svg" xmlns:xlink="http://www.w3.org/1999/xlink" x="0px" y="0px"
	 viewBox="0 0 45 45" style="enable-background:new 0 0 45 45;" xml:space="preserve">
<path d="M34,16.3v-3.1h-4.3l-7.2-5.1l-7.2,5.1H11l0,3.1l-2.5,1.8v18.2h0.9l0,0l13-12l11.1,10.2C32.8,35,32,35.3,31,35.3H13.5v1H31
	c3,0,5.5-2.5,5.5-5.5V18.1L34,16.3z M35.3,18.4L34,19.6v-2L35.3,18.4z M22.5,9.4l5.4,3.9H17.1L22.5,9.4z M11,19.6l-1.3-1.1l1.3-0.9
	L11,19.6z M9.5,19.6l8.4,7.6l-8.4,7.8V19.6z M18.6,26.5l-6.6-6l0-6.2h21v6.2l-6.6,6l-3.9-3.6L18.6,26.5z M35.5,30.8
	c0,1.2-0.5,2.2-1.2,3l-7.2-6.7l8.4-7.6V30.8z"/>
</svg>
