<svg width="201" height="53" viewBox="0 0 201 53" fill="none" xmlns="http://www.w3.org/2000/svg">
<path d="M6.32541 42.3131H192.519V29.0811H198.553V48.3475H0.291016V29.0811H6.32541V42.3131Z" fill="#F57D5B" stroke="#F57D5B" stroke-width="0.581628"/>
<path d="M138.386 9.23349V13.1042C137.45 11.9723 136.34 11.0775 135.056 10.4202L134.965 10.374C133.009 9.39638 130.801 8.9076 128.339 8.9076C125.587 8.9076 123.089 9.48693 120.844 10.6455C118.635 11.8041 116.879 13.4334 115.576 15.5334L115.517 15.632C114.289 17.7098 113.675 20.1208 113.675 22.8652C113.675 25.6893 114.309 28.1514 115.576 30.2513C116.879 32.3513 118.635 33.9987 120.844 35.1935L120.949 35.2474C123.167 36.37 125.63 36.9314 128.339 36.9314C130.762 36.9314 132.94 36.4577 134.873 35.5105L134.965 35.465C136.141 34.8553 137.172 34.0554 138.06 33.0658V34.5961C138.06 37.5288 137.318 39.7193 135.834 41.1676L135.763 41.2366C134.276 42.675 131.964 43.3943 128.828 43.3943V40.4134C131.443 40.4134 132.843 39.8367 133.581 39.1948C131.923 39.6788 130.17 39.9122 128.339 39.9122C126.251 39.9122 124.254 39.6224 122.364 39.0293C122.809 39.226 123.293 39.4098 123.818 39.5783L123.834 39.5834L123.85 39.5888C125.512 40.1428 127.168 40.4134 128.828 40.4134V43.3943L128.641 43.3933C126.713 43.3735 124.802 43.048 122.908 42.4167C120.989 41.8012 119.396 40.9684 118.129 39.9184L115.087 45.0236C116.717 46.3632 118.798 47.377 121.333 48.0649C123.903 48.789 126.528 49.151 129.208 49.151C134.277 49.151 138.151 47.9019 140.83 45.4037C143.509 42.9417 144.849 39.0857 144.849 33.8357V9.23349H138.386ZM120.518 22.8652C120.518 21.2359 120.88 19.8058 121.604 18.5748C122.353 17.3273 123.382 16.3781 124.692 15.7271L124.754 15.6963C126.13 15.0084 127.669 14.6645 129.371 14.6645L129.53 14.6654C131.167 14.6863 132.635 15.0299 133.933 15.6963C135.272 16.348 136.304 17.3075 137.028 18.5748C137.789 19.8058 138.169 21.2359 138.169 22.8652C138.169 24.4945 137.789 25.9428 137.028 27.21C136.304 28.441 135.272 29.4186 133.933 30.1427C132.593 30.8306 131.072 31.1746 129.371 31.1746V28.1938C130.647 28.1938 131.682 27.9412 132.543 27.5049C133.423 27.0239 134.033 26.4223 134.459 25.6986L134.466 25.6874L134.472 25.6763C134.927 24.919 135.188 24.0113 135.188 22.8652C135.188 21.7176 134.926 20.844 134.492 20.1411L134.465 20.0978L134.44 20.0537C134.02 19.3184 133.441 18.772 132.629 18.3768L132.6 18.3627L132.571 18.348C131.705 17.9031 130.661 17.6453 129.371 17.6453C128.082 17.6453 127.007 17.9027 126.087 18.3625L126.073 18.3697L126.058 18.3768C125.238 18.776 124.627 19.3358 124.167 20.0978C123.752 20.8074 123.499 21.6976 123.499 22.8652C123.499 24.0152 123.745 24.9295 124.168 25.6872C124.63 26.4192 125.263 27.0207 126.13 27.4973C127.04 27.944 128.102 28.1938 129.371 28.1938V31.1746L129.212 31.1735C127.573 31.1527 126.087 30.8091 124.754 30.1427C123.415 29.4186 122.365 28.441 121.604 27.21C120.88 25.9428 120.518 24.4945 120.518 22.8652ZM147.83 33.8357C147.83 39.5357 146.376 44.3454 142.863 47.5838C139.45 50.7661 134.739 52.1319 129.208 52.1319C126.263 52.1319 123.372 51.7343 120.544 50.9395C117.703 50.1673 115.217 48.9893 113.194 47.326L111.215 45.6989L116.9 36.1564C115.379 34.9537 114.088 33.5068 113.043 31.8233L113.033 31.8074L113.024 31.7914C111.436 29.1599 110.694 26.1484 110.694 22.8652C110.694 19.6103 111.439 16.6189 113.024 13.9933L113.033 13.9773L113.043 13.9614C114.63 11.4052 116.784 9.40918 119.459 8.00584L119.468 8.00122L119.477 7.99668C122.181 6.60086 125.155 5.92676 128.339 5.92676C130.857 5.92676 133.227 6.36812 135.405 7.29542V6.25265H147.83V33.8357Z" fill="white"/>
<path d="M128.339 8.69043C130.83 8.69043 133.073 9.18515 135.062 10.1797C136.24 10.7685 137.275 11.5501 138.168 12.5225V9.01562H145.067V33.8359C145.067 39.1194 143.719 43.0456 140.978 45.5645C138.245 48.112 134.31 49.3701 129.208 49.3701C126.51 49.3701 123.866 49.0045 121.276 48.2754C118.719 47.5813 116.607 46.5558 114.949 45.1924L114.805 45.0732L118.072 39.5889L118.269 39.751C119.471 40.7474 120.979 41.5487 122.798 42.1514L122.975 42.21H122.978C124.911 42.8545 126.861 43.1768 128.828 43.1768C131.986 43.1767 134.253 42.4403 135.68 41.0137L135.682 41.0117C137.109 39.6191 137.843 37.4952 137.843 34.5967V33.6162C137.027 34.4408 136.101 35.122 135.065 35.6592L135.064 35.6602H135.062C133.073 36.6547 130.83 37.1504 128.339 37.1504C125.556 37.1503 123.022 36.5636 120.744 35.3877L120.74 35.3857C118.499 34.1732 116.714 32.4998 115.391 30.3672V30.3652L115.39 30.3643C114.099 28.2254 113.457 25.7229 113.457 22.8652C113.457 20.0434 114.099 17.5592 115.39 15.4209L115.391 15.4199V15.4189C116.715 13.2856 118.5 11.6296 120.743 10.4531L120.744 10.4521L121.175 10.2383C123.34 9.20504 125.73 8.69047 128.339 8.69043ZM51.2725 24.875C51.2725 27.4521 51.8448 29.345 52.9521 30.5928C54.0959 31.8046 55.7158 32.4229 57.8428 32.4229C59.4058 32.4228 60.7432 32.1036 61.8633 31.4736L61.8643 31.4727H61.8662C63.019 30.8438 63.9117 29.9002 64.5449 28.6338L64.5459 28.6318L64.5469 28.6289C65.2139 27.3649 65.5537 25.7912 65.5537 23.8975V9.01562H72.7783V38.4531H65.8799V35.1475C65.0859 36.022 64.1429 36.7532 63.0518 37.3408L63.0498 37.3418L63.0488 37.3428C61.1333 38.3374 59.0344 38.8339 56.7568 38.834C54.2679 38.834 52.0616 38.3758 50.1445 37.4541L50.1436 37.4531H50.1416C48.2187 36.4917 46.7202 35.0479 45.6494 33.1279V33.126C44.5772 31.1663 44.0469 28.7203 44.0469 25.7988V9.01562H51.2725V24.875ZM86.1211 9.2334H92.1416V15.1006H86.1211V28.6768C86.1211 30.016 86.4551 31.0243 87.0947 31.7324C87.7692 32.4394 88.7023 32.8037 89.9219 32.8037C91.4026 32.8036 92.6202 32.4164 93.5889 31.6553L93.8193 31.4746L95.8848 36.7285L95.7617 36.8291C94.9384 37.5027 93.9325 38.0043 92.75 38.3369C91.5719 38.6682 90.3568 38.834 89.1064 38.834C85.8842 38.8339 83.3616 38.0094 81.5713 36.3311L81.5693 36.3291C79.7756 34.61 78.8955 32.1006 78.8955 28.8398V15.1006H75.2793V9.2334H78.8955V2.60742H86.1211V9.2334ZM105.19 9.2334H115.501L112.339 15.1006H105.19V28.6768C105.19 30.0159 105.525 31.0243 106.164 31.7324C106.838 32.4393 107.772 32.8037 108.991 32.8037C110.472 32.8037 111.689 32.4164 112.658 31.6553L112.889 31.4746L114.955 36.7285L114.832 36.8291C114.009 37.5028 113.003 38.0043 111.82 38.3369C110.642 38.6683 109.427 38.834 108.177 38.834C104.954 38.834 102.432 38.0093 100.642 36.3311L100.64 36.3291C98.8458 34.61 97.9659 32.1007 97.9658 28.8398V15.1006H94.3496V9.2334H97.9658V2.60742H105.19V9.2334ZM163.115 8.69043C165.972 8.69043 168.526 9.31335 170.771 10.5645C173.015 11.8154 174.782 13.5823 176.068 15.8613C177.357 18.1442 177.997 20.8254 177.997 23.8975C177.997 24.1931 177.979 24.5233 177.943 24.8867C177.943 25.2516 177.924 25.5997 177.888 25.9307L177.866 26.125H155.182C155.372 27.0043 155.689 27.8176 156.134 28.5654C156.908 29.8676 157.999 30.8709 159.411 31.5771C160.825 32.2838 162.456 32.6406 164.311 32.6406C165.917 32.6406 167.356 32.3911 168.631 31.8955C169.902 31.4012 171.034 30.6233 172.026 29.5596L172.191 29.3828L176.112 33.8896L175.989 34.0322C174.662 35.5807 172.986 36.7772 170.966 37.6221L170.964 37.623C168.978 38.432 166.704 38.834 164.147 38.834C161.1 38.834 158.396 38.2715 156.041 37.1416L155.57 36.9062C153.148 35.585 151.255 33.7835 149.895 31.5039L149.893 31.502C148.568 29.2206 147.908 26.6291 147.908 23.7344C147.908 20.8053 148.549 18.2146 149.838 15.9688L149.839 15.9678C151.162 13.6897 152.963 11.9056 155.242 10.6191L155.243 10.6182L155.682 10.3848C157.89 9.25382 160.369 8.69049 163.115 8.69043ZM24.3096 0C27.6994 1.53121e-05 30.6104 0.547257 33.0352 1.64941C35.4948 2.751 37.3933 4.33408 38.7217 6.40039C40.051 8.46826 40.7118 10.9184 40.7119 13.7412C40.7119 16.5642 40.0511 19.015 38.7217 21.083V21.084H38.7207C37.3919 23.1142 35.4934 24.6791 33.0342 25.7803L33.0322 25.7812C32.9437 25.8201 32.8544 25.8581 32.7646 25.8955L41.5645 38.4531H33.4287L25.6865 27.3438C25.2367 27.3639 24.7777 27.374 24.3096 27.374H18.2734V38.4531H10.7764V0H24.3096ZM197.823 8.69043C198.859 8.69043 199.751 8.83012 200.064 8.91406L200.292 8.97461L197.964 15.6309L197.771 15.583C197.495 15.5142 197.242 15.4805 197.009 15.4805H196.993L196.978 15.4785C196.734 15.4438 196.491 15.4258 196.248 15.4258C193.723 15.4259 191.737 16.1717 190.266 17.6436L190.264 17.6455C188.8 19.0748 188.049 21.2352 188.049 24.1689V38.4531H180.823V9.01562H187.723V12.791C188.518 11.7468 189.516 10.8946 190.713 10.2373L190.714 10.2363C192.637 9.20106 195.01 8.69045 197.823 8.69043ZM168.463 32.1904C168.443 32.1977 168.422 32.2047 168.401 32.2119C168.423 32.2043 168.445 32.1972 168.467 32.1895L168.463 32.1904ZM129.371 14.8828C127.7 14.8828 126.195 15.2205 124.853 15.8916L124.852 15.8926H124.851C123.549 16.5256 122.531 17.4558 121.793 18.6855C121.091 19.8784 120.736 21.2694 120.736 22.8652C120.736 24.4592 121.09 25.8681 121.792 27.0977C122.531 28.2925 123.55 29.2438 124.855 29.9502C126.197 30.6203 127.701 30.957 129.371 30.957C131.041 30.957 132.526 30.6201 133.83 29.9512C135.137 29.2447 136.138 28.2938 136.841 27.0996V27.0986H136.842C137.58 25.8687 137.951 24.4592 137.951 22.8652C137.951 21.2714 137.579 19.8817 136.843 18.6895L136.841 18.6865L136.84 18.6836C136.138 17.4553 135.139 16.5255 133.838 15.8926L133.836 15.8916L133.833 15.8906C132.528 15.2206 131.042 14.8828 129.371 14.8828ZM163.115 14.5576C161.483 14.5577 160.056 14.9112 158.826 15.6133C157.631 16.3167 156.681 17.3017 155.975 18.5723C155.554 19.3474 155.265 20.217 155.108 21.1816H171.109C170.964 20.209 170.662 19.3223 170.204 18.5205C169.499 17.2871 168.531 16.3191 167.298 15.6143H167.297L167.296 15.6133C166.103 14.9115 164.711 14.5576 163.115 14.5576ZM18.2734 21.127H23.9834C27.0709 21.127 29.3464 20.4617 30.8477 19.1699H30.8486L30.8496 19.1689C32.3857 17.8772 33.1611 16.077 33.1611 13.7412C33.161 11.368 32.3846 9.57075 30.8516 8.31641L30.8506 8.31543H30.8496C29.3482 7.05844 27.072 6.41113 23.9834 6.41113H18.2734V21.127ZM30.8164 19.4785C30.8246 19.472 30.8337 19.4655 30.8418 19.459L30.8438 19.457C30.8349 19.4642 30.8254 19.4714 30.8164 19.4785ZM170.09 17.9219C170.071 17.8939 170.053 17.8656 170.034 17.8379C170.029 17.8308 170.023 17.8235 170.019 17.8164C170.042 17.8511 170.066 17.8867 170.09 17.9219ZM191.104 16.6562C191.076 16.6751 191.049 16.6946 191.022 16.7139C191.076 16.6754 191.13 16.6376 191.185 16.6006L191.104 16.6562ZM168.913 16.5312L168.865 16.4863C168.854 16.4763 168.843 16.4669 168.832 16.457C168.859 16.4817 168.886 16.5063 168.913 16.5312ZM167.406 15.4248L167.349 15.3916C167.331 15.3812 167.312 15.3706 167.294 15.3604L167.269 15.3467C167.315 15.3724 167.361 15.398 167.406 15.4248ZM129.788 14.6719C129.755 14.6708 129.722 14.6698 129.688 14.6689H129.683C129.718 14.6698 129.753 14.6707 129.788 14.6719ZM33.3789 13.6279L33.377 13.5156C33.3762 13.4784 33.3752 13.4413 33.374 13.4043C33.3764 13.4783 33.3781 13.5528 33.3789 13.6279ZM26.1729 6.31445C26.1304 6.30938 26.0877 6.30456 26.0449 6.2998L25.915 6.28613C26.0017 6.29504 26.0877 6.30428 26.1729 6.31445Z" fill="#222222"/>
</svg>
